<?xml version="1.0" encoding="UTF-8"?>
<!DOCTYPE svg PUBLIC "-//W3C//DTD SVG 1.1//EN" "http://www.w3.org/Graphics/SVG/1.1/DTD/svg11.dtd">
<svg width="160mm" height="90mm" viewBox="0 0 16000 9000" version="1.1" xmlns="http://www.w3.org/2000/svg" xmlns:xlink="http://www.w3.org/1999/xlink" stroke-width="28.222" stroke-linejoin="round" xml:space="preserve">
 <path fill="rgb(255,255,255)" stroke="none" d="M 8003,8988 L 3,8988 3,-11 16002,-11 16002,8988 8003,8988 Z"/>
 <path fill="none" stroke="rgb(179,179,179)" stroke-linejoin="round" d="M 7327,7764 L 1685,7764 1685,369 12969,369 12969,7764 7327,7764 Z"/>
 <path fill="none" stroke="rgb(179,179,179)" stroke-linejoin="round" d="M 12969,7763 L 1685,7763"/>
 <path fill="none" stroke="rgb(179,179,179)" stroke-linejoin="round" d="M 12969,6283 L 1685,6283"/>
 <path fill="none" stroke="rgb(179,179,179)" stroke-linejoin="round" d="M 12969,4804 L 1685,4804"/>
 <path fill="none" stroke="rgb(179,179,179)" stroke-linejoin="round" d="M 12969,3326 L 1685,3326"/>
 <path fill="none" stroke="rgb(179,179,179)" stroke-linejoin="round" d="M 12969,1847 L 1685,1847"/>
 <path fill="none" stroke="rgb(179,179,179)" stroke-linejoin="round" d="M 12969,367 L 1685,367"/>
 <path fill="none" stroke="rgb(179,179,179)" stroke-linejoin="round" d="M 1685,7913 L 1685,7763"/>
 <path fill="none" stroke="rgb(179,179,179)" stroke-linejoin="round" d="M 1685,7913 L 1685,7763"/>
 <path fill="none" stroke="rgb(179,179,179)" stroke-linejoin="round" d="M 3565,7913 L 3565,7763"/>
 <path fill="none" stroke="rgb(179,179,179)" stroke-linejoin="round" d="M 3565,7913 L 3565,7763"/>
 <path fill="none" stroke="rgb(179,179,179)" stroke-linejoin="round" d="M 5446,7913 L 5446,7763"/>
 <path fill="none" stroke="rgb(179,179,179)" stroke-linejoin="round" d="M 5446,7913 L 5446,7763"/>
 <path fill="none" stroke="rgb(179,179,179)" stroke-linejoin="round" d="M 7327,7913 L 7327,7763"/>
 <path fill="none" stroke="rgb(179,179,179)" stroke-linejoin="round" d="M 7327,7913 L 7327,7763"/>
 <path fill="none" stroke="rgb(179,179,179)" stroke-linejoin="round" d="M 9207,7913 L 9207,7763"/>
 <path fill="none" stroke="rgb(179,179,179)" stroke-linejoin="round" d="M 9207,7913 L 9207,7763"/>
 <path fill="none" stroke="rgb(179,179,179)" stroke-linejoin="round" d="M 11088,7913 L 11088,7763"/>
 <path fill="none" stroke="rgb(179,179,179)" stroke-linejoin="round" d="M 11088,7913 L 11088,7763"/>
 <path fill="none" stroke="rgb(179,179,179)" stroke-linejoin="round" d="M 12969,7913 L 12969,7763"/>
 <path fill="none" stroke="rgb(179,179,179)" stroke-linejoin="round" d="M 12969,7913 L 12969,7763"/>
 <path fill="none" stroke="rgb(179,179,179)" stroke-linejoin="round" d="M 1685,7763 L 12969,7763"/>
 <path fill="none" stroke="rgb(179,179,179)" stroke-linejoin="round" d="M 1535,7763 L 1685,7763"/>
 <path fill="none" stroke="rgb(179,179,179)" stroke-linejoin="round" d="M 1535,7763 L 1685,7763"/>
 <path fill="none" stroke="rgb(179,179,179)" stroke-linejoin="round" d="M 1535,6283 L 1685,6283"/>
 <path fill="none" stroke="rgb(179,179,179)" stroke-linejoin="round" d="M 1535,6283 L 1685,6283"/>
 <path fill="none" stroke="rgb(179,179,179)" stroke-linejoin="round" d="M 1535,4804 L 1685,4804"/>
 <path fill="none" stroke="rgb(179,179,179)" stroke-linejoin="round" d="M 1535,4804 L 1685,4804"/>
 <path fill="none" stroke="rgb(179,179,179)" stroke-linejoin="round" d="M 1535,3326 L 1685,3326"/>
 <path fill="none" stroke="rgb(179,179,179)" stroke-linejoin="round" d="M 1535,3326 L 1685,3326"/>
 <path fill="none" stroke="rgb(179,179,179)" stroke-linejoin="round" d="M 1535,1847 L 1685,1847"/>
 <path fill="none" stroke="rgb(179,179,179)" stroke-linejoin="round" d="M 1535,1847 L 1685,1847"/>
 <path fill="none" stroke="rgb(179,179,179)" stroke-linejoin="round" d="M 1535,367 L 1685,367"/>
 <path fill="none" stroke="rgb(179,179,179)" stroke-linejoin="round" d="M 1535,367 L 1685,367"/>
 <path fill="none" stroke="rgb(179,179,179)" stroke-linejoin="round" d="M 1685,7763 L 1685,367"/>
 <path fill="rgb(0,69,134)" stroke="none" d="M 11401,7763 L 12655,7763 12655,7700 11401,7700 11401,7763 Z"/>
 <path fill="rgb(0,69,134)" stroke="none" d="M 9520,7763 L 10774,7763 10774,7702 9520,7702 9520,7763 Z"/>
 <path fill="rgb(0,69,134)" stroke="none" d="M 7640,7763 L 8893,7763 8893,7752 7640,7752 7640,7763 Z"/>
 <path fill="rgb(0,69,134)" stroke="none" d="M 5760,7763 L 7014,7763 7014,7727 5760,7727 5760,7763 Z"/>
 <path fill="rgb(0,69,134)" stroke="none" d="M 3879,7763 L 5133,7763 5133,7611 3879,7611 3879,7763 Z"/>
 <path fill="rgb(0,69,134)" stroke="none" d="M 1998,7763 L 3252,7763 3252,7611 1998,7611 1998,7763 Z"/>
 <path fill="rgb(255,66,14)" stroke="none" d="M 11401,7700 L 12655,7700 12655,7694 11401,7694 11401,7700 Z"/>
 <path fill="rgb(255,66,14)" stroke="none" d="M 9520,7702 L 10774,7702 10774,7696 9520,7696 9520,7702 Z"/>
 <path fill="rgb(255,66,14)" stroke="none" d="M 7640,7752 L 8893,7752 8893,7749 7640,7749 7640,7752 Z"/>
 <path fill="rgb(255,66,14)" stroke="none" d="M 5760,7727 L 7014,7727 7014,7724 5760,7724 5760,7727 Z"/>
 <path fill="rgb(255,66,14)" stroke="none" d="M 3879,7611 L 5133,7611 5133,7595 3879,7595 3879,7611 Z"/>
 <path fill="rgb(255,66,14)" stroke="none" d="M 1998,7611 L 3252,7611 3252,7595 1998,7595 1998,7611 Z"/>
 <path fill="rgb(255,211,32)" stroke="none" d="M 11401,7694 L 12655,7694 12655,7687 11401,7687 11401,7694 Z"/>
 <path fill="rgb(255,211,32)" stroke="none" d="M 9520,7696 L 10774,7696 10774,7689 9520,7689 9520,7696 Z"/>
 <path fill="rgb(255,211,32)" stroke="none" d="M 7640,7749 L 8893,7749 8893,7746 7640,7746 7640,7749 Z"/>
 <path fill="rgb(255,211,32)" stroke="none" d="M 5760,7724 L 7014,7724 7014,7722 5760,7722 5760,7724 Z"/>
 <path fill="rgb(255,211,32)" stroke="none" d="M 3879,7595 L 5133,7595 5133,7578 3879,7578 3879,7595 Z"/>
 <path fill="rgb(255,211,32)" stroke="none" d="M 1998,7595 L 3252,7595 3252,7577 1998,7577 1998,7595 Z"/>
 <path fill="rgb(87,157,28)" stroke="none" d="M 11401,7687 L 12655,7687 12655,7631 11401,7631 11401,7687 Z"/>
 <path fill="rgb(87,157,28)" stroke="none" d="M 9520,7689 L 10774,7689 10774,7624 9520,7624 9520,7689 Z"/>
 <path fill="rgb(87,157,28)" stroke="none" d="M 7640,7746 L 8893,7746 8893,7741 7640,7741 7640,7746 Z"/>
 <path fill="rgb(87,157,28)" stroke="none" d="M 5760,7722 L 7014,7722 7014,7706 5760,7706 5760,7722 Z"/>
 <path fill="rgb(87,157,28)" stroke="none" d="M 3879,7578 L 5133,7578 5133,7430 3879,7430 3879,7578 Z"/>
 <path fill="rgb(87,157,28)" stroke="none" d="M 1998,7577 L 3252,7577 3252,7430 1998,7430 1998,7577 Z"/>
 <path fill="rgb(126,0,33)" stroke="none" d="M 11401,7631 L 12655,7631 12655,7599 11401,7599 11401,7631 Z"/>
 <path fill="rgb(126,0,33)" stroke="none" d="M 9520,7624 L 10774,7624 10774,7593 9520,7593 9520,7624 Z"/>
 <path fill="rgb(126,0,33)" stroke="none" d="M 7640,7741 L 8893,7741 8893,7734 7640,7734 7640,7741 Z"/>
 <path fill="rgb(126,0,33)" stroke="none" d="M 5760,7706 L 7014,7706 7014,7693 5760,7693 5760,7706 Z"/>
 <path fill="rgb(126,0,33)" stroke="none" d="M 3879,7430 L 5133,7430 5133,7371 3879,7371 3879,7430 Z"/>
 <path fill="rgb(126,0,33)" stroke="none" d="M 1998,7430 L 3252,7430 3252,7371 1998,7371 1998,7430 Z"/>
 <path fill="rgb(131,202,255)" stroke="none" d="M 11401,7599 L 12655,7599 12655,6763 11401,6763 11401,7599 Z"/>
 <path fill="rgb(131,202,255)" stroke="none" d="M 9520,7593 L 10774,7593 10774,7369 9520,7369 9520,7593 Z"/>
 <path fill="rgb(131,202,255)" stroke="none" d="M 7640,7734 L 8893,7734 8893,7620 7640,7620 7640,7734 Z"/>
 <path fill="rgb(131,202,255)" stroke="none" d="M 5760,7693 L 7014,7693 7014,7349 5760,7349 5760,7693 Z"/>
 <path fill="rgb(131,202,255)" stroke="none" d="M 3879,7371 L 5133,7371 5133,7141 3879,7141 3879,7371 Z"/>
 <path fill="rgb(131,202,255)" stroke="none" d="M 1998,7371 L 3252,7371 3252,5152 1998,5152 1998,7371 Z"/>
 <path fill="rgb(49,64,4)" stroke="none" d="M 11401,6763 L 12655,6763 12655,5538 11401,5538 11401,6763 Z"/>
 <path fill="rgb(49,64,4)" stroke="none" d="M 9520,7369 L 10774,7369 10774,7190 9520,7190 9520,7369 Z"/>
 <path fill="rgb(49,64,4)" stroke="none" d="M 7640,7620 L 8893,7620 8893,7533 7640,7533 7640,7620 Z"/>
 <path fill="rgb(49,64,4)" stroke="none" d="M 5760,7349 L 7014,7349 7014,7031 5760,7031 5760,7349 Z"/>
 <path fill="rgb(49,64,4)" stroke="none" d="M 3879,7141 L 5133,7141 5133,6958 3879,6958 3879,7141 Z"/>
 <path fill="rgb(49,64,4)" stroke="none" d="M 1998,5152 L 3252,5152 3252,3214 1998,3214 1998,5152 Z"/>
 <path fill="rgb(174,207,0)" stroke="none" d="M 11401,5538 L 12655,5538 12655,4782 11401,4782 11401,5538 Z"/>
 <path fill="rgb(174,207,0)" stroke="none" d="M 9520,7190 L 10774,7190 10774,6932 9520,6932 9520,7190 Z"/>
 <path fill="rgb(174,207,0)" stroke="none" d="M 7640,7533 L 8893,7533 8893,7432 7640,7432 7640,7533 Z"/>
 <path fill="rgb(174,207,0)" stroke="none" d="M 5760,7031 L 7014,7031 7014,6753 5760,6753 5760,7031 Z"/>
 <path fill="rgb(174,207,0)" stroke="none" d="M 3879,6958 L 5133,6958 5133,6695 3879,6695 3879,6958 Z"/>
 <path fill="rgb(174,207,0)" stroke="none" d="M 1998,3214 L 3252,3214 3252,1785 1998,1785 1998,3214 Z"/>
 <text class="TextShape"><tspan class="TextParagraph" font-family="Liberation Sans, sans-serif" font-size="353px" font-weight="400"><tspan class="TextPosition" x="2096" y="8331"><tspan fill="rgb(0,0,0)" stroke="none">Zynq7</tspan></tspan></tspan><tspan class="TextParagraph" font-family="Liberation Sans, sans-serif" font-size="353px" font-weight="400"><tspan class="TextPosition" x="2096" y="8728"><tspan fill="rgb(0,0,0)" stroke="none">(woPL)</tspan></tspan></tspan></text>
 <text class="TextShape"><tspan class="TextParagraph" font-family="Liberation Sans, sans-serif" font-size="353px" font-weight="400"><tspan class="TextPosition" x="4029" y="8331"><tspan fill="rgb(0,0,0)" stroke="none">Zynq7</tspan></tspan></tspan><tspan class="TextParagraph" font-family="Liberation Sans, sans-serif" font-size="353px" font-weight="400"><tspan class="TextPosition" x="4029" y="8728"><tspan fill="rgb(0,0,0)" stroke="none">(wPL)</tspan></tspan></tspan></text>
 <text class="TextShape"><tspan class="TextParagraph" font-family="Liberation Sans, sans-serif" font-size="353px" font-weight="400"><tspan class="TextPosition" x="5805" y="8331"><tspan fill="rgb(0,0,0)" stroke="none">Celeron</tspan></tspan></tspan><tspan class="TextParagraph" font-family="Liberation Sans, sans-serif" font-size="353px" font-weight="400"><tspan class="TextPosition" x="5805" y="8728"><tspan fill="rgb(0,0,0)" stroke="none">N3450</tspan></tspan></tspan></text>
 <text class="TextShape"><tspan class="TextParagraph" font-family="Liberation Sans, sans-serif" font-size="353px" font-weight="400"><tspan class="TextPosition" x="7724" y="8331"><tspan fill="rgb(0,0,0)" stroke="none">Core i5</tspan></tspan></tspan><tspan class="TextParagraph" font-family="Liberation Sans, sans-serif" font-size="353px" font-weight="400"><tspan class="TextPosition" x="7724" y="8728"><tspan fill="rgb(0,0,0)" stroke="none">6400</tspan></tspan></tspan></text>
 <text class="TextShape"><tspan class="TextParagraph" font-family="Liberation Sans, sans-serif" font-size="353px" font-weight="400"><tspan class="TextPosition" x="9500" y="8331"><tspan fill="rgb(0,0,0)" stroke="none">ZynqMP</tspan></tspan></tspan><tspan class="TextParagraph" font-family="Liberation Sans, sans-serif" font-size="353px" font-weight="400"><tspan class="TextPosition" x="9500" y="8728"><tspan fill="rgb(0,0,0)" stroke="none">(wPL)</tspan></tspan></tspan></text>
 <text class="TextShape"><tspan class="TextParagraph" font-family="Liberation Sans, sans-serif" font-size="353px" font-weight="400"><tspan class="TextPosition" x="11381" y="8331"><tspan fill="rgb(0,0,0)" stroke="none">ZynqMP</tspan></tspan></tspan><tspan class="TextParagraph" font-family="Liberation Sans, sans-serif" font-size="353px" font-weight="400"><tspan class="TextPosition" x="11381" y="8728"><tspan fill="rgb(0,0,0)" stroke="none">(woPL)</tspan></tspan></tspan></text>
 <text class="TextShape"><tspan class="TextParagraph" font-family="Liberation Sans, sans-serif" font-size="353px" font-weight="400"><tspan class="TextPosition" x="1250" y="7884"><tspan fill="rgb(0,0,0)" stroke="none">0</tspan></tspan></tspan></text>
 <text class="TextShape"><tspan class="TextParagraph" font-family="Liberation Sans, sans-serif" font-size="353px" font-weight="400"><tspan class="TextPosition" x="509" y="6404"><tspan fill="rgb(0,0,0)" stroke="none">50000</tspan></tspan></tspan></text>
 <text class="TextShape"><tspan class="TextParagraph" font-family="Liberation Sans, sans-serif" font-size="353px" font-weight="400"><tspan class="TextPosition" x="324" y="4925"><tspan fill="rgb(0,0,0)" stroke="none">100000</tspan></tspan></tspan></text>
 <text class="TextShape"><tspan class="TextParagraph" font-family="Liberation Sans, sans-serif" font-size="353px" font-weight="400"><tspan class="TextPosition" x="324" y="3446"><tspan fill="rgb(0,0,0)" stroke="none">150000</tspan></tspan></tspan></text>
 <text class="TextShape"><tspan class="TextParagraph" font-family="Liberation Sans, sans-serif" font-size="353px" font-weight="400"><tspan class="TextPosition" x="324" y="1967"><tspan fill="rgb(0,0,0)" stroke="none">200000</tspan></tspan></tspan></text>
 <text class="TextShape"><tspan class="TextParagraph" font-family="Liberation Sans, sans-serif" font-size="353px" font-weight="400"><tspan class="TextPosition" x="324" y="487"><tspan fill="rgb(0,0,0)" stroke="none">250000</tspan></tspan></tspan></text>
 <path fill="rgb(0,69,134)" stroke="none" d="M 13511,6336 L 13405,6336 13405,6125 13616,6125 13616,6336 13511,6336 Z"/>
 <path fill="rgb(255,66,14)" stroke="none" d="M 13511,5838 L 13405,5838 13405,5627 13616,5627 13616,5838 13511,5838 Z"/>
 <path fill="rgb(255,211,32)" stroke="none" d="M 13511,5340 L 13405,5340 13405,5129 13616,5129 13616,5340 13511,5340 Z"/>
 <path fill="rgb(87,157,28)" stroke="none" d="M 13511,4842 L 13405,4842 13405,4631 13616,4631 13616,4842 13511,4842 Z"/>
 <path fill="rgb(126,0,33)" stroke="none" d="M 13511,4345 L 13405,4345 13405,4134 13616,4134 13616,4345 13511,4345 Z"/>
 <path fill="rgb(131,202,255)" stroke="none" d="M 13511,3847 L 13405,3847 13405,3636 13616,3636 13616,3847 13511,3847 Z"/>
 <path fill="rgb(49,64,4)" stroke="none" d="M 13511,3349 L 13405,3349 13405,3138 13616,3138 13616,3349 13511,3349 Z"/>
 <path fill="rgb(174,207,0)" stroke="none" d="M 13511,2851 L 13405,2851 13405,2640 13616,2640 13616,2851 13511,2851 Z"/>
 <text class="TextShape"><tspan class="TextParagraph" font-family="Liberation Sans, sans-serif" font-size="353px" font-weight="400"><tspan class="TextPosition" x="13716" y="2865"><tspan fill="rgb(0,0,0)" stroke="none">delta param</tspan></tspan></tspan></text>
 <text class="TextShape"><tspan class="TextParagraph" font-family="Liberation Sans, sans-serif" font-size="353px" font-weight="400"><tspan class="TextPosition" x="13716" y="3363"><tspan fill="rgb(0,0,0)" stroke="none">conv back</tspan></tspan></tspan></text>
 <text class="TextShape"><tspan class="TextParagraph" font-family="Liberation Sans, sans-serif" font-size="353px" font-weight="400"><tspan class="TextPosition" x="13716" y="3861"><tspan fill="rgb(0,0,0)" stroke="none">conv forward</tspan></tspan></tspan></text>
 <text class="TextShape"><tspan class="TextParagraph" font-family="Liberation Sans, sans-serif" font-size="353px" font-weight="400"><tspan class="TextPosition" x="13716" y="4359"><tspan fill="rgb(0,0,0)" stroke="none">pool back</tspan></tspan></tspan></text>
 <text class="TextShape"><tspan class="TextParagraph" font-family="Liberation Sans, sans-serif" font-size="353px" font-weight="400"><tspan class="TextPosition" x="13716" y="4856"><tspan fill="rgb(0,0,0)" stroke="none">pool forward</tspan></tspan></tspan></text>
 <text class="TextShape"><tspan class="TextParagraph" font-family="Liberation Sans, sans-serif" font-size="353px" font-weight="400"><tspan class="TextPosition" x="13716" y="5354"><tspan fill="rgb(0,0,0)" stroke="none">activ back</tspan></tspan></tspan></text>
 <text class="TextShape"><tspan class="TextParagraph" font-family="Liberation Sans, sans-serif" font-size="353px" font-weight="400"><tspan class="TextPosition" x="13716" y="5852"><tspan fill="rgb(0,0,0)" stroke="none">activ forward</tspan></tspan></tspan></text>
 <text class="TextShape"><tspan class="TextParagraph" font-family="Liberation Sans, sans-serif" font-size="353px" font-weight="400"><tspan class="TextPosition" x="13716" y="6350"><tspan fill="rgb(0,0,0)" stroke="none">other</tspan></tspan></tspan></text>
</svg>