<?xml version="1.0" encoding="UTF-8"?>
<!DOCTYPE svg PUBLIC "-//W3C//DTD SVG 1.1//EN" "http://www.w3.org/Graphics/SVG/1.1/DTD/svg11.dtd">
<svg width="160mm" height="90mm" viewBox="0 0 16000 9000" version="1.1" xmlns="http://www.w3.org/2000/svg" xmlns:xlink="http://www.w3.org/1999/xlink" stroke-width="28.222" stroke-linejoin="round" xml:space="preserve">
 <path fill="rgb(255,255,255)" stroke="none" d="M 8000,8999 L 0,8999 0,0 15999,0 15999,8999 8000,8999 Z"/>
 <path fill="none" stroke="rgb(179,179,179)" stroke-linejoin="round" d="M 7324,8172 L 1682,8172 1682,379 12966,379 12966,8172 7324,8172 Z"/>
 <path fill="none" stroke="rgb(179,179,179)" stroke-linejoin="round" d="M 12966,8171 L 1682,8171"/>
 <path fill="none" stroke="rgb(179,179,179)" stroke-linejoin="round" d="M 12966,6612 L 1682,6612"/>
 <path fill="none" stroke="rgb(179,179,179)" stroke-linejoin="round" d="M 12966,5053 L 1682,5053"/>
 <path fill="none" stroke="rgb(179,179,179)" stroke-linejoin="round" d="M 12966,3495 L 1682,3495"/>
 <path fill="none" stroke="rgb(179,179,179)" stroke-linejoin="round" d="M 12966,1936 L 1682,1936"/>
 <path fill="none" stroke="rgb(179,179,179)" stroke-linejoin="round" d="M 12966,378 L 1682,378"/>
 <path fill="none" stroke="rgb(179,179,179)" stroke-linejoin="round" d="M 1682,8321 L 1682,8171"/>
 <path fill="none" stroke="rgb(179,179,179)" stroke-linejoin="round" d="M 1682,8321 L 1682,8171"/>
 <path fill="none" stroke="rgb(179,179,179)" stroke-linejoin="round" d="M 5443,8321 L 5443,8171"/>
 <path fill="none" stroke="rgb(179,179,179)" stroke-linejoin="round" d="M 5443,8321 L 5443,8171"/>
 <path fill="none" stroke="rgb(179,179,179)" stroke-linejoin="round" d="M 9204,8321 L 9204,8171"/>
 <path fill="none" stroke="rgb(179,179,179)" stroke-linejoin="round" d="M 9204,8321 L 9204,8171"/>
 <path fill="none" stroke="rgb(179,179,179)" stroke-linejoin="round" d="M 12966,8321 L 12966,8171"/>
 <path fill="none" stroke="rgb(179,179,179)" stroke-linejoin="round" d="M 12966,8321 L 12966,8171"/>
 <path fill="none" stroke="rgb(179,179,179)" stroke-linejoin="round" d="M 1682,8171 L 12966,8171"/>
 <path fill="none" stroke="rgb(179,179,179)" stroke-linejoin="round" d="M 1532,8171 L 1682,8171"/>
 <path fill="none" stroke="rgb(179,179,179)" stroke-linejoin="round" d="M 1532,8171 L 1682,8171"/>
 <path fill="none" stroke="rgb(179,179,179)" stroke-linejoin="round" d="M 1532,6612 L 1682,6612"/>
 <path fill="none" stroke="rgb(179,179,179)" stroke-linejoin="round" d="M 1532,6612 L 1682,6612"/>
 <path fill="none" stroke="rgb(179,179,179)" stroke-linejoin="round" d="M 1532,5053 L 1682,5053"/>
 <path fill="none" stroke="rgb(179,179,179)" stroke-linejoin="round" d="M 1532,5053 L 1682,5053"/>
 <path fill="none" stroke="rgb(179,179,179)" stroke-linejoin="round" d="M 1532,3495 L 1682,3495"/>
 <path fill="none" stroke="rgb(179,179,179)" stroke-linejoin="round" d="M 1532,3495 L 1682,3495"/>
 <path fill="none" stroke="rgb(179,179,179)" stroke-linejoin="round" d="M 1532,1936 L 1682,1936"/>
 <path fill="none" stroke="rgb(179,179,179)" stroke-linejoin="round" d="M 1532,1936 L 1682,1936"/>
 <path fill="none" stroke="rgb(179,179,179)" stroke-linejoin="round" d="M 1532,378 L 1682,378"/>
 <path fill="none" stroke="rgb(179,179,179)" stroke-linejoin="round" d="M 1532,378 L 1682,378"/>
 <path fill="none" stroke="rgb(179,179,179)" stroke-linejoin="round" d="M 1682,8171 L 1682,378"/>
 <path fill="rgb(0,69,134)" stroke="none" d="M 10144,8171 L 12025,8171 12025,8084 10144,8084 10144,8171 Z"/>
 <path fill="rgb(0,69,134)" stroke="none" d="M 6384,8171 L 8263,8171 8263,8011 6384,8011 6384,8171 Z"/>
 <path fill="rgb(0,69,134)" stroke="none" d="M 2622,8171 L 4503,8171 4503,8011 2622,8011 2622,8171 Z"/>
 <path fill="rgb(255,66,14)" stroke="none" d="M 10144,8084 L 12025,8084 12025,8081 10144,8081 10144,8084 Z"/>
 <path fill="rgb(255,66,14)" stroke="none" d="M 6384,8011 L 8263,8011 8263,7994 6384,7994 6384,8011 Z"/>
 <path fill="rgb(255,66,14)" stroke="none" d="M 2622,8011 L 4503,8011 4503,7994 2622,7994 2622,8011 Z"/>
 <path fill="rgb(255,211,32)" stroke="none" d="M 10144,8081 L 12025,8081 12025,8078 10144,8078 10144,8081 Z"/>
 <path fill="rgb(255,211,32)" stroke="none" d="M 6384,7994 L 8263,7994 8263,7976 6384,7976 6384,7994 Z"/>
 <path fill="rgb(255,211,32)" stroke="none" d="M 2622,7994 L 4503,7994 4503,7975 2622,7975 2622,7994 Z"/>
 <path fill="rgb(87,157,28)" stroke="none" d="M 10144,8078 L 12025,8078 12025,8073 10144,8073 10144,8078 Z"/>
 <path fill="rgb(87,157,28)" stroke="none" d="M 6384,7976 L 8263,7976 8263,7820 6384,7820 6384,7976 Z"/>
 <path fill="rgb(87,157,28)" stroke="none" d="M 2622,7975 L 4503,7975 4503,7820 2622,7820 2622,7975 Z"/>
 <path fill="rgb(126,0,33)" stroke="none" d="M 10144,8073 L 12025,8073 12025,8065 10144,8065 10144,8073 Z"/>
 <path fill="rgb(126,0,33)" stroke="none" d="M 6384,7820 L 8263,7820 8263,7758 6384,7758 6384,7820 Z"/>
 <path fill="rgb(126,0,33)" stroke="none" d="M 2622,7820 L 4503,7820 4503,7758 2622,7758 2622,7820 Z"/>
 <path fill="rgb(131,202,255)" stroke="none" d="M 10144,8065 L 12025,8065 12025,7944 10144,7944 10144,8065 Z"/>
 <path fill="rgb(131,202,255)" stroke="none" d="M 6384,7758 L 8263,7758 8263,7515 6384,7515 6384,7758 Z"/>
 <path fill="rgb(131,202,255)" stroke="none" d="M 2622,7758 L 4503,7758 4503,5420 2622,5420 2622,7758 Z"/>
 <path fill="rgb(49,64,4)" stroke="none" d="M 10144,7944 L 12025,7944 12025,7851 10144,7851 10144,7944 Z"/>
 <path fill="rgb(49,64,4)" stroke="none" d="M 6384,7515 L 8263,7515 8263,7322 6384,7322 6384,7515 Z"/>
 <path fill="rgb(49,64,4)" stroke="none" d="M 2622,5420 L 4503,5420 4503,3377 2622,3377 2622,5420 Z"/>
 <path fill="rgb(174,207,0)" stroke="none" d="M 10144,7851 L 12025,7851 12025,7744 10144,7744 10144,7851 Z"/>
 <path fill="rgb(174,207,0)" stroke="none" d="M 6384,7322 L 8263,7322 8263,7046 6384,7046 6384,7322 Z"/>
 <path fill="rgb(174,207,0)" stroke="none" d="M 2622,3377 L 4503,3377 4503,1871 2622,1871 2622,3377 Z"/>
 <text class="TextShape"><tspan class="TextParagraph" font-family="Liberation Sans, sans-serif" font-size="353px" font-weight="400"><tspan class="TextPosition" x="2649" y="8739"><tspan fill="rgb(0,0,0)" stroke="none">Zynq(woPL)</tspan></tspan></tspan></text>
 <text class="TextShape"><tspan class="TextParagraph" font-family="Liberation Sans, sans-serif" font-size="353px" font-weight="400"><tspan class="TextPosition" x="6504" y="8739"><tspan fill="rgb(0,0,0)" stroke="none">Zynq(wPL)</tspan></tspan></tspan></text>
 <text class="TextShape"><tspan class="TextParagraph" font-family="Liberation Sans, sans-serif" font-size="353px" font-weight="400"><tspan class="TextPosition" x="10543" y="8739"><tspan fill="rgb(0,0,0)" stroke="none">Core i5</tspan></tspan></tspan></text>
 <text class="TextShape"><tspan class="TextParagraph" font-family="Liberation Sans, sans-serif" font-size="353px" font-weight="400"><tspan class="TextPosition" x="1247" y="8292"><tspan fill="rgb(0,0,0)" stroke="none">0</tspan></tspan></tspan></text>
 <text class="TextShape"><tspan class="TextParagraph" font-family="Liberation Sans, sans-serif" font-size="353px" font-weight="400"><tspan class="TextPosition" x="506" y="6733"><tspan fill="rgb(0,0,0)" stroke="none">50000</tspan></tspan></tspan></text>
 <text class="TextShape"><tspan class="TextParagraph" font-family="Liberation Sans, sans-serif" font-size="353px" font-weight="400"><tspan class="TextPosition" x="321" y="5174"><tspan fill="rgb(0,0,0)" stroke="none">100000</tspan></tspan></tspan></text>
 <text class="TextShape"><tspan class="TextParagraph" font-family="Liberation Sans, sans-serif" font-size="353px" font-weight="400"><tspan class="TextPosition" x="321" y="3615"><tspan fill="rgb(0,0,0)" stroke="none">150000</tspan></tspan></tspan></text>
 <text class="TextShape"><tspan class="TextParagraph" font-family="Liberation Sans, sans-serif" font-size="353px" font-weight="400"><tspan class="TextPosition" x="321" y="2056"><tspan fill="rgb(0,0,0)" stroke="none">200000</tspan></tspan></tspan></text>
 <text class="TextShape"><tspan class="TextParagraph" font-family="Liberation Sans, sans-serif" font-size="353px" font-weight="400"><tspan class="TextPosition" x="321" y="498"><tspan fill="rgb(0,0,0)" stroke="none">250000</tspan></tspan></tspan></text>
 <path fill="rgb(0,69,134)" stroke="none" d="M 13508,6347 L 13402,6347 13402,6136 13613,6136 13613,6347 13508,6347 Z"/>
 <path fill="rgb(255,66,14)" stroke="none" d="M 13508,5849 L 13402,5849 13402,5638 13613,5638 13613,5849 13508,5849 Z"/>
 <path fill="rgb(255,211,32)" stroke="none" d="M 13508,5351 L 13402,5351 13402,5140 13613,5140 13613,5351 13508,5351 Z"/>
 <path fill="rgb(87,157,28)" stroke="none" d="M 13508,4853 L 13402,4853 13402,4642 13613,4642 13613,4853 13508,4853 Z"/>
 <path fill="rgb(126,0,33)" stroke="none" d="M 13508,4356 L 13402,4356 13402,4145 13613,4145 13613,4356 13508,4356 Z"/>
 <path fill="rgb(131,202,255)" stroke="none" d="M 13508,3858 L 13402,3858 13402,3647 13613,3647 13613,3858 13508,3858 Z"/>
 <path fill="rgb(49,64,4)" stroke="none" d="M 13508,3360 L 13402,3360 13402,3149 13613,3149 13613,3360 13508,3360 Z"/>
 <path fill="rgb(174,207,0)" stroke="none" d="M 13508,2862 L 13402,2862 13402,2651 13613,2651 13613,2862 13508,2862 Z"/>
 <text class="TextShape"><tspan class="TextParagraph" font-family="Liberation Sans, sans-serif" font-size="353px" font-weight="400"><tspan class="TextPosition" x="13713" y="2876"><tspan fill="rgb(0,0,0)" stroke="none">delta param</tspan></tspan></tspan></text>
 <text class="TextShape"><tspan class="TextParagraph" font-family="Liberation Sans, sans-serif" font-size="353px" font-weight="400"><tspan class="TextPosition" x="13713" y="3374"><tspan fill="rgb(0,0,0)" stroke="none">conv back</tspan></tspan></tspan></text>
 <text class="TextShape"><tspan class="TextParagraph" font-family="Liberation Sans, sans-serif" font-size="353px" font-weight="400"><tspan class="TextPosition" x="13713" y="3872"><tspan fill="rgb(0,0,0)" stroke="none">conv forward</tspan></tspan></tspan></text>
 <text class="TextShape"><tspan class="TextParagraph" font-family="Liberation Sans, sans-serif" font-size="353px" font-weight="400"><tspan class="TextPosition" x="13713" y="4370"><tspan fill="rgb(0,0,0)" stroke="none">pool back</tspan></tspan></tspan></text>
 <text class="TextShape"><tspan class="TextParagraph" font-family="Liberation Sans, sans-serif" font-size="353px" font-weight="400"><tspan class="TextPosition" x="13713" y="4867"><tspan fill="rgb(0,0,0)" stroke="none">pool forward</tspan></tspan></tspan></text>
 <text class="TextShape"><tspan class="TextParagraph" font-family="Liberation Sans, sans-serif" font-size="353px" font-weight="400"><tspan class="TextPosition" x="13713" y="5365"><tspan fill="rgb(0,0,0)" stroke="none">activ back</tspan></tspan></tspan></text>
 <text class="TextShape"><tspan class="TextParagraph" font-family="Liberation Sans, sans-serif" font-size="353px" font-weight="400"><tspan class="TextPosition" x="13713" y="5863"><tspan fill="rgb(0,0,0)" stroke="none">activ forward</tspan></tspan></tspan></text>
 <text class="TextShape"><tspan class="TextParagraph" font-family="Liberation Sans, sans-serif" font-size="353px" font-weight="400"><tspan class="TextPosition" x="13713" y="6361"><tspan fill="rgb(0,0,0)" stroke="none">other</tspan></tspan></tspan></text>
</svg>